<svg id="visual" viewBox="0 0 15 15" width="15" height="15" xmlns="http://www.w3.org/2000/svg" xmlns:xlink="http://www.w3.org/1999/xlink" version="1.1"><path d="M0 3L0.2 3C0.3 3 0.7 3 1.2 2.8C1.7 2.7 2.3 2.3 2.8 2.3C3.3 2.3 3.7 2.7 4 2.8C4.3 3 4.7 3 5.2 2.8C5.7 2.7 6.3 2.3 6.8 2.3C7.3 2.3 7.7 2.7 8.2 2.8C8.7 3 9.3 3 9.8 2.8C10.3 2.7 10.7 2.3 11 2.3C11.3 2.3 11.7 2.7 12.2 2.8C12.7 3 13.3 3 13.8 3C14.3 3 14.7 3 14.8 3L15 3L15 0L14.8 0C14.7 0 14.3 0 13.8 0C13.3 0 12.7 0 12.2 0C11.7 0 11.3 0 11 0C10.7 0 10.3 0 9.8 0C9.3 0 8.7 0 8.2 0C7.7 0 7.3 0 6.8 0C6.3 0 5.7 0 5.2 0C4.7 0 4.3 0 4 0C3.7 0 3.3 0 2.8 0C2.3 0 1.7 0 1.2 0C0.7 0 0.3 0 0.2 0L0 0Z" fill="#6198ff"></path><path d="M0 10L0.2 9.3C0.3 8.7 0.7 7.3 1.2 7C1.7 6.7 2.3 7.3 2.8 7.7C3.3 8 3.7 8 4 7.7C4.3 7.3 4.7 6.7 5.2 6.2C5.7 5.7 6.3 5.3 6.8 5.7C7.3 6 7.7 7 8.2 7.2C8.7 7.3 9.3 6.7 9.8 6.5C10.3 6.3 10.7 6.7 11 6.7C11.3 6.7 11.7 6.3 12.2 6.5C12.7 6.7 13.3 7.3 13.8 7.7C14.3 8 14.7 8 14.8 8L15 8L15 1L14.8 1C14.7 1 14.3 1 13.8 1C13.3 1 12.7 1 12.2 0.8C11.7 0.7 11.3 0.3 11 0.3C10.7 0.3 10.3 0.7 9.8 0.8C9.3 1 8.7 1 8.2 0.8C7.7 0.7 7.3 0.3 6.8 0.3C6.3 0.3 5.7 0.7 5.2 0.8C4.7 1 4.3 1 4 0.8C3.7 0.7 3.3 0.3 2.8 0.3C2.3 0.3 1.7 0.7 1.2 0.8C0.7 1 0.3 1 0.2 1L0 1Z" fill="#3c80ff"></path><path d="M0 12L0.2 11.7C0.3 11.3 0.7 10.7 1.2 10.3C1.7 10 2.3 10 2.8 10.3C3.3 10.7 3.7 11.3 4 11.2C4.3 11 4.7 10 5.2 9.2C5.7 8.3 6.3 7.7 6.8 8.2C7.3 8.7 7.7 10.3 8.2 10.5C8.7 10.7 9.3 9.3 9.8 8.7C10.3 8 10.7 8 11 8.2C11.3 8.3 11.7 8.7 12.2 9C12.7 9.3 13.3 9.7 13.8 10.2C14.3 10.7 14.7 11.3 14.8 11.7L15 12L15 6L14.8 6C14.7 6 14.3 6 13.8 5.7C13.3 5.3 12.7 4.7 12.2 4.5C11.7 4.3 11.3 4.7 11 4.7C10.7 4.7 10.3 4.3 9.8 4.5C9.3 4.7 8.7 5.3 8.2 5.2C7.7 5 7.3 4 6.8 3.7C6.3 3.3 5.7 3.7 5.2 4.2C4.7 4.7 4.3 5.3 4 5.7C3.7 6 3.3 6 2.8 5.7C2.3 5.3 1.7 4.7 1.2 5C0.7 5.3 0.3 6.7 0.2 7.3L0 8Z" fill="#0066ff"></path><path d="M0 14L0.2 13.7C0.3 13.3 0.7 12.7 1.2 12.3C1.7 12 2.3 12 2.8 12.2C3.3 12.3 3.7 12.7 4 12.5C4.3 12.3 4.7 11.7 5.2 11C5.7 10.3 6.3 9.7 6.8 10.2C7.3 10.7 7.7 12.3 8.2 12.7C8.7 13 9.3 12 9.8 11.5C10.3 11 10.7 11 11 11C11.3 11 11.7 11 12.2 11.2C12.7 11.3 13.3 11.7 13.8 12C14.3 12.3 14.7 12.7 14.8 12.8L15 13L15 10L14.8 9.7C14.7 9.3 14.3 8.7 13.8 8.2C13.3 7.7 12.7 7.3 12.2 7C11.7 6.7 11.3 6.3 11 6.2C10.7 6 10.3 6 9.8 6.7C9.3 7.3 8.7 8.7 8.2 8.5C7.7 8.3 7.3 6.7 6.8 6.2C6.3 5.7 5.7 6.3 5.2 7.2C4.7 8 4.3 9 4 9.2C3.7 9.3 3.3 8.7 2.8 8.3C2.3 8 1.7 8 1.2 8.3C0.7 8.7 0.3 9.3 0.2 9.7L0 10Z" fill="#0059dd"></path><path d="M0 16L0.2 16C0.3 16 0.7 16 1.2 16C1.7 16 2.3 16 2.8 16C3.3 16 3.7 16 4 16C4.3 16 4.7 16 5.2 16C5.7 16 6.3 16 6.8 16C7.3 16 7.7 16 8.2 16C8.7 16 9.3 16 9.8 16C10.3 16 10.7 16 11 16C11.3 16 11.7 16 12.2 16C12.7 16 13.3 16 13.8 16C14.3 16 14.7 16 14.8 16L15 16L15 11L14.8 10.8C14.7 10.7 14.3 10.3 13.8 10C13.3 9.7 12.7 9.3 12.2 9.2C11.7 9 11.3 9 11 9C10.7 9 10.3 9 9.8 9.5C9.3 10 8.7 11 8.2 10.7C7.7 10.3 7.3 8.7 6.8 8.2C6.3 7.7 5.7 8.3 5.2 9C4.7 9.7 4.3 10.3 4 10.5C3.7 10.7 3.3 10.3 2.8 10.2C2.3 10 1.7 10 1.2 10.3C0.7 10.7 0.3 11.3 0.2 11.7L0 12Z" fill="#004cbb"></path></svg>