<svg id="visual" viewBox="0 0 15 15" width="15" height="15" xmlns="http://www.w3.org/2000/svg" xmlns:xlink="http://www.w3.org/1999/xlink" version="1.1"><path d="M0 4L0.2 3.8C0.3 3.7 0.7 3.3 1.2 3.5C1.7 3.7 2.3 4.3 2.8 4.7C3.3 5 3.7 5 4 5C4.3 5 4.7 5 5.2 4.8C5.7 4.7 6.3 4.3 6.8 4.2C7.3 4 7.7 4 8.2 4C8.7 4 9.3 4 9.8 4C10.3 4 10.7 4 11 4C11.3 4 11.7 4 12.2 4C12.7 4 13.3 4 13.8 3.7C14.3 3.3 14.7 2.7 14.8 2.3L15 2L15 0L14.8 0C14.7 0 14.3 0 13.8 0C13.3 0 12.7 0 12.2 0C11.7 0 11.3 0 11 0C10.7 0 10.3 0 9.8 0C9.3 0 8.7 0 8.2 0C7.7 0 7.3 0 6.8 0C6.3 0 5.7 0 5.2 0C4.7 0 4.3 0 4 0C3.7 0 3.3 0 2.8 0C2.3 0 1.7 0 1.2 0C0.7 0 0.3 0 0.2 0L0 0Z" fill="#1735b7"></path><path d="M0 10L0.2 9.5C0.3 9 0.7 8 1.2 7.7C1.7 7.3 2.3 7.7 2.8 8.2C3.3 8.7 3.7 9.3 4 9.2C4.3 9 4.7 8 5.2 7.3C5.7 6.7 6.3 6.3 6.8 6.5C7.3 6.7 7.7 7.3 8.2 7.8C8.7 8.3 9.3 8.7 9.8 8.3C10.3 8 10.7 7 11 7C11.3 7 11.7 8 12.2 8.2C12.7 8.3 13.3 7.7 13.8 7.7C14.3 7.7 14.7 8.3 14.8 8.7L15 9L15 0L14.8 0.3C14.7 0.7 14.3 1.3 13.8 1.7C13.3 2 12.7 2 12.2 2C11.7 2 11.3 2 11 2C10.7 2 10.3 2 9.8 2C9.3 2 8.7 2 8.2 2C7.7 2 7.3 2 6.8 2.2C6.3 2.3 5.7 2.7 5.2 2.8C4.7 3 4.3 3 4 3C3.7 3 3.3 3 2.8 2.7C2.3 2.3 1.7 1.7 1.2 1.5C0.7 1.3 0.3 1.7 0.2 1.8L0 2Z" fill="#0067cc"></path><path d="M0 12L0.2 11.5C0.3 11 0.7 10 1.2 9.8C1.7 9.7 2.3 10.3 2.8 10.8C3.3 11.3 3.7 11.7 4 11.3C4.3 11 4.7 10 5.2 9.3C5.7 8.7 6.3 8.3 6.8 8.7C7.3 9 7.7 10 8.2 10.7C8.7 11.3 9.3 11.7 9.8 11.3C10.3 11 10.7 10 11 9.8C11.3 9.7 11.7 10.3 12.2 10.5C12.7 10.7 13.3 10.3 13.8 10.3C14.3 10.3 14.7 10.7 14.8 10.8L15 11L15 7L14.8 6.7C14.7 6.3 14.3 5.7 13.8 5.7C13.3 5.7 12.7 6.3 12.2 6.2C11.7 6 11.3 5 11 5C10.7 5 10.3 6 9.8 6.3C9.3 6.7 8.7 6.3 8.2 5.8C7.7 5.3 7.3 4.7 6.8 4.5C6.3 4.3 5.7 4.7 5.2 5.3C4.7 6 4.3 7 4 7.2C3.7 7.3 3.3 6.7 2.8 6.2C2.3 5.7 1.7 5.3 1.2 5.7C0.7 6 0.3 7 0.2 7.5L0 8Z" fill="#008fcf"></path><path d="M0 13L0.2 12.5C0.3 12 0.7 11 1.2 11C1.7 11 2.3 12 2.8 12.3C3.3 12.7 3.7 12.3 4 12C4.3 11.7 4.7 11.3 5.2 11C5.7 10.7 6.3 10.3 6.8 10.7C7.3 11 7.7 12 8.2 12.7C8.7 13.3 9.3 13.7 9.8 13.3C10.3 13 10.7 12 11 11.8C11.3 11.7 11.7 12.3 12.2 12.7C12.7 13 13.3 13 13.8 12.8C14.3 12.7 14.7 12.3 14.8 12.2L15 12L15 9L14.8 8.8C14.7 8.7 14.3 8.3 13.8 8.3C13.3 8.3 12.7 8.7 12.2 8.5C11.7 8.3 11.3 7.7 11 7.8C10.7 8 10.3 9 9.8 9.3C9.3 9.7 8.7 9.3 8.2 8.7C7.7 8 7.3 7 6.8 6.7C6.3 6.3 5.7 6.7 5.2 7.3C4.7 8 4.3 9 4 9.3C3.7 9.7 3.3 9.3 2.8 8.8C2.3 8.3 1.7 7.7 1.2 7.8C0.7 8 0.3 9 0.2 9.5L0 10Z" fill="#00afbf"></path><path d="M0 16L0.2 16C0.3 16 0.7 16 1.2 16C1.7 16 2.3 16 2.8 16C3.3 16 3.7 16 4 16C4.3 16 4.7 16 5.2 16C5.7 16 6.3 16 6.8 16C7.3 16 7.7 16 8.2 16C8.7 16 9.3 16 9.8 16C10.3 16 10.7 16 11 16C11.3 16 11.7 16 12.2 16C12.7 16 13.3 16 13.8 16C14.3 16 14.7 16 14.8 16L15 16L15 10L14.8 10.2C14.7 10.3 14.3 10.7 13.8 10.8C13.3 11 12.7 11 12.2 10.7C11.7 10.3 11.3 9.7 11 9.8C10.7 10 10.3 11 9.8 11.3C9.3 11.7 8.7 11.3 8.2 10.7C7.7 10 7.3 9 6.8 8.7C6.3 8.3 5.7 8.7 5.2 9C4.7 9.3 4.3 9.7 4 10C3.7 10.3 3.3 10.7 2.8 10.3C2.3 10 1.7 9 1.2 9C0.7 9 0.3 10 0.2 10.5L0 11Z" fill="#0dc169"></path></svg>